<svg width="620" height="620" xmlns="http://www.w3.org/2000/svg" xmlns:xlink="http://www.w3.org/1999/xlink" overflow="hidden"><defs><clipPath id="clip0"><path d="M311 38 931 38 931 658 311 658Z" fill-rule="evenodd" clip-rule="evenodd"/></clipPath><clipPath id="clip1"><path d="M312 39 930 39 930 657 312 657Z" fill-rule="evenodd" clip-rule="evenodd"/></clipPath><clipPath id="clip2"><path d="M312 42 930 42 930 657 312 657Z" fill-rule="evenodd" clip-rule="evenodd"/></clipPath><clipPath id="clip3"><path d="M312 42 930 42 930 673 312 673Z" fill-rule="evenodd" clip-rule="evenodd"/></clipPath></defs><g clip-path="url(#clip0)" transform="translate(-311 -38)"><g clip-path="url(#clip1)"><g clip-path="url(#clip2)"><g clip-path="url(#clip3)"><path d="M271.737 598.754 271.737 468.93 141.913 339.105 11.9625 339.105 351.068 0" fill="#3690CE" transform="matrix(1 0 -0 1.00001 315.39 42.1531)"/><path d="M351.068 0 12.5921 339.105 141.913 339.105 271.737 468.93 271.737 598.754 610.843 259.649 610.843 0ZM467.167 179.06C446.338 177.856 430.429 159.996 431.632 139.167 432.836 118.339 450.696 102.429 471.525 103.633 492.166 104.825 508.014 122.391 507.084 143.046 506.145 163.888 488.488 180.023 467.646 179.084 467.486 179.077 467.326 179.069 467.167 179.06Z" fill="#3090CE" transform="matrix(1 0 -0 1.00001 315.39 42.1531)"/><path d="M225.399 472.33 139.143 386.074 0 611.472 225.399 472.33Z" fill="#FFFFFF" transform="matrix(1 0 -0 1.00001 315.39 42.1531)"/><path d="M610.843 259.775 271.737 598.754 271.737 468.93" fill="#2F2E35" fill-opacity="0.2" transform="matrix(1 0 -0 1.00001 315.39 42.1531)"/><path d="M141.913 339.105 11.9625 339.105 351.068 0 141.913 339.105Z" fill="#FFFFFF" fill-opacity="0.15" transform="matrix(1 0 -0 1.00001 315.39 42.1531)"/></g></g></g></g></svg>